<?xml version="1.0" encoding="UTF-8"?>
<svg id="_レイヤー_2" data-name="レイヤー 2" xmlns="http://www.w3.org/2000/svg" viewBox="0 0 700 700">
  <defs>
    <style>
      .cls-1 {
        fill: #e5cbe1;
        stroke-miterlimit: 10;
        stroke-width: 4.86px;
      }

      .cls-1, .cls-2, .cls-3 {
        stroke: #9abece;
      }

      .cls-4 {
        fill: none;
      }

      .cls-4, .cls-5 {
        stroke-width: 0px;
      }

      .cls-5 {
        fill: #9abece;
      }

      .cls-2 {
        fill: #fff;
      }

      .cls-2, .cls-3 {
        stroke-linecap: round;
        stroke-linejoin: round;
        stroke-width: 9.72px;
      }

      .cls-3 {
        fill: #dfeef9;
      }
    </style>
  </defs>
  <g id="_レイヤー_1-2" data-name="レイヤー 1">
    <rect class="cls-4" width="700" height="700"/>
    <g>
      <polygon class="cls-2" points="354.99 346.15 80.35 233.8 345.01 126.44 619.65 231.3 354.99 346.15"/>
      <polygon class="cls-3" points="276.61 309.53 357.91 514.16 428.05 314.07 276.61 309.53"/>
      <polygon class="cls-2" points="354.99 666.99 354.99 346.15 619.65 231.3 619.65 533.41 354.99 666.99"/>
      <polygon class="cls-2" points="80.42 554.67 80.35 233.8 354.99 346.15 355.08 667 80.42 554.67"/>
      <g>
        <path class="cls-3" d="m259.6,287.57s-35.65,34.09-37,53.09c-1.35,19-6.21,53.01,37.52,57.86,43.73,4.86,30.65-44.71,30.65-44.71,0,0-6.36-42.74,15.51-42.74s-46.68-23.5-46.68-23.5Z"/>
        <path class="cls-3" d="m470.78,296.49s21.6,20.31,22.94,39.31c1.35,19,6.21,53.01-37.52,57.86-43.73,4.86-30.65-44.71-30.65-44.71,0,0,6.36-42.74-15.51-42.74-21.86,0,60.73-9.72,60.73-9.72Z"/>
        <g>
          <path class="cls-3" d="m227.46,195.04s-47.24-106.74,0-145.98c47.24-39.23,86.11,106.52,86.11,106.52,0,0,59.95-23.64,100.42,5.19,0,0,21.04-141.23,79.34-92.64,58.3,48.59-4.86,131.18-4.86,131.18,0,0,14.58,38.87,9.72,72.88-4.35,30.42-102.03,43.73-140.9,43.73s-137.61-12.4-139.25-42.64c-1.64-30.24,9.42-78.24,9.42-78.24Z"/>
          <g>
            <ellipse class="cls-5" cx="306.27" cy="206.61" rx="12.15" ry="17"/>
            <ellipse class="cls-5" cx="413.16" cy="211.46" rx="12.15" ry="17"/>
            <path class="cls-1" d="m335.42,255.19s28.72,7.31,53.44,0c0,0,5.39,22.3-24.03,25.73-29.42,3.42-29.42-25.73-29.42-25.73Z"/>
          </g>
        </g>
      </g>
    </g>
  </g>
</svg>